# MagicaVoxel @ Ephtracy

# group
o 

# material
mtllib 플레이어.mtl
usemtl palette

# normals
vn -1 0 0
vn 1 0 0
vn 0 0 1
vn 0 0 -1
vn 0 -1 0
vn 0 1 0

# texcoords
vt 0.197266 0.5
vt 0.314453 0.5
vt 0.345703 0.5
vt 0.365234 0.5
vt 0.369141 0.5
vt 0.474609 0.5
vt 0.478516 0.5
vt 0.505859 0.5
vt 0.537109 0.5
vt 0.876953 0.5

# verts
v -0.7 0.6 0.2
v -0.7 0.6 0.1
v -0.7 0.7 0.2
v -0.7 0.7 0.1
v -0.6 0.7 0.2
v -0.6 0.7 0.1
v -0.6 0.8 0.3
v -0.6 0.8 0.2
v -0.6 0.8 0.1
v -0.6 0.8 0
v -0.6 1 0.4
v -0.6 1 0.3
v -0.6 1.2 0.4
v -0.6 1.2 0
v -0.5 0.3 0.3
v -0.5 0.3 0.2
v -0.5 0.3 -0.1
v -0.5 0.4 0.3
v -0.5 0.4 0.2
v -0.5 0.4 0
v -0.5 0.4 -0.1
v -0.5 0.5 0.2
v -0.5 0.5 0
v -0.5 0.7 0.3
v -0.5 0.7 0.2
v -0.5 0.7 0.1
v -0.5 0.7 0
v -0.5 0.8 0.3
v -0.5 0.8 0.2
v -0.5 0.8 0.1
v -0.5 0.8 0
v -0.5 0.8 -0.1
v -0.5 1.2 0.4
v -0.5 1.2 0
v -0.5 1.2 -0.1
v -0.5 1.3 0.4
v -0.5 1.3 0
v -0.4 0 0.2
v -0.4 0 0
v -0.4 0.1 0.2
v -0.4 0.1 0.1
v -0.4 0.1 0
v -0.4 0.2 0.2
v -0.4 0.2 0.1
v -0.4 0.2 0
v -0.4 0.3 0.2
v -0.4 0.3 0.1
v -0.4 0.3 0
v -0.4 0.4 0.3
v -0.4 0.4 0.2
v -0.4 0.4 0
v -0.4 0.4 -0.1
v -0.4 0.5 0.3
v -0.4 0.5 0.2
v -0.4 0.5 0
v -0.4 0.5 -0.1
v -0.4 0.7 0.3
v -0.4 0.7 0
v -0.4 0.8 -0.1
v -0.4 0.8 -0.2
v -0.4 1.2 0
v -0.4 1.2 -0.1
v -0.4 1.2 -0.2
v -0.4 1.3 0.4
v -0.4 1.3 0
v -0.4 1.3 -0.1
v -0.4 1.4 0.4
v -0.4 1.4 0
v -0.3 0.8 0.2
v -0.3 0.8 0
v -0.3 0.9 0.2
v -0.3 0.9 0
v -0.2 0 0.2
v -0.2 0 0
v -0.2 0.1 0.2
v -0.2 0.1 0
v -0.2 0.3 0.2
v -0.2 0.3 0
v -0.2 0.8 0
v -0.2 0.8 -0.1
v -0.2 0.9 0
v -0.2 0.9 -0.1
v -0.2 1.3 0.4
v -0.2 1.3 0.3
v -0.2 1.4 0.4
v -0.2 1.4 0.3
v -0.1 1.1 0.4
v -0.1 1.1 0.3
v -0.1 1.3 0.4
v -0.1 1.3 0.3
v 0 0.8 0.3
v 0 0.8 0.2
v 0 0.8 0.1
v 0 0.8 0
v 0 0.9 0.3
v 0 0.9 0
v 0 1 0.4
v 0 1 0.3
v 0 1.1 0.4
v 0 1.1 0.3
v 0.1 0.6 0.2
v 0.1 0.6 0.1
v 0.1 0.7 0.2
v 0.1 0.7 0.1
v -0.6 0.6 0.2
v -0.6 0.6 0.1
v -0.6 0.7 0.2
v -0.6 0.7 0.1
v -0.5 0.8 0.3
v -0.5 0.8 0
v -0.5 0.9 0.3
v -0.5 0.9 0
v -0.5 1 0.4
v -0.5 1 0.3
v -0.5 1.1 0.4
v -0.5 1.1 0.3
v -0.4 0.8 0
v -0.4 0.8 -0.1
v -0.4 0.9 0
v -0.4 0.9 -0.1
v -0.4 1.1 0.4
v -0.4 1.1 0.3
v -0.4 1.2 0.3
v -0.4 1.3 0.4
v -0.4 1.3 0.3
v -0.3 0 0.2
v -0.3 0 0
v -0.3 0.1 0.2
v -0.3 0.1 0.1
v -0.3 0.1 0
v -0.3 0.2 0.2
v -0.3 0.2 0.1
v -0.3 0.2 0
v -0.3 0.3 0.2
v -0.3 0.3 0.1
v -0.3 0.3 0
v -0.3 1.3 0.4
v -0.3 1.3 0.3
v -0.3 1.4 0.4
v -0.3 1.4 0.3
v -0.2 0.8 0.2
v -0.2 0.8 0.1
v -0.2 0.8 0
v -0.2 0.9 0.2
v -0.2 0.9 0
v -0.1 0 0.2
v -0.1 0 0
v -0.1 0.1 0.2
v -0.1 0.1 0
v -0.1 0.3 0.2
v -0.1 0.3 0
v -0.1 0.4 0.3
v -0.1 0.4 0.2
v -0.1 0.4 0
v -0.1 0.4 -0.1
v -0.1 0.5 0.2
v -0.1 0.5 0
v -0.1 0.5 -0.1
v -0.1 0.6 0.3
v -0.1 0.6 0.2
v -0.1 0.7 0.3
v -0.1 0.7 0.2
v -0.1 0.7 0.1
v -0.1 0.7 0
v -0.1 0.8 -0.1
v -0.1 0.8 -0.2
v -0.1 1.2 0
v -0.1 1.2 -0.1
v -0.1 1.2 -0.2
v -0.1 1.3 0.4
v -0.1 1.3 0
v -0.1 1.3 -0.1
v -0.1 1.4 0.4
v -0.1 1.4 0
v 0 0.3 0.3
v 0 0.3 -0.1
v 0 0.4 0.3
v 0 0.4 0.2
v 0 0.4 0
v 0 0.4 -0.1
v 0 0.5 0.2
v 0 0.5 0
v 0 0.7 0.3
v 0 0.7 0.2
v 0 0.7 0.1
v 0 0.7 0
v 0 0.8 0.3
v 0 0.8 0.2
v 0 0.8 0.1
v 0 0.8 0
v 0 0.8 -0.1
v 0 1.2 0.4
v 0 1.2 0
v 0 1.2 -0.1
v 0 1.3 0.4
v 0 1.3 0
v 0.1 0.7 0.2
v 0.1 0.7 0.1
v 0.1 0.8 0.3
v 0.1 0.8 0.2
v 0.1 0.8 0.1
v 0.1 0.8 0
v 0.1 1 0.4
v 0.1 1 0.3
v 0.1 1.2 0.4
v 0.1 1.2 0
v 0.2 0.6 0.2
v 0.2 0.6 0.1
v 0.2 0.7 0.2
v 0.2 0.7 0.1
v -0.6 1 0.4
v -0.6 1.2 0.4
v -0.5 1 0.4
v -0.5 1.1 0.4
v -0.5 1.2 0.4
v -0.5 1.3 0.4
v -0.4 1.1 0.4
v -0.4 1.3 0.4
v -0.4 1.4 0.4
v -0.3 1.3 0.4
v -0.3 1.4 0.4
v -0.2 1.3 0.4
v -0.2 1.4 0.4
v -0.1 1.1 0.4
v -0.1 1.3 0.4
v -0.1 1.4 0.4
v 0 1 0.4
v 0 1.1 0.4
v 0 1.2 0.4
v 0 1.3 0.4
v 0.1 1 0.4
v 0.1 1.2 0.4
v -0.6 0.8 0.3
v -0.6 1 0.3
v -0.5 0.3 0.3
v -0.5 0.4 0.3
v -0.5 0.7 0.3
v -0.5 0.8 0.3
v -0.5 0.9 0.3
v -0.5 1 0.3
v -0.5 1.1 0.3
v -0.4 0.3 0.3
v -0.4 0.4 0.3
v -0.4 0.5 0.3
v -0.4 0.7 0.3
v -0.4 1 0.3
v -0.4 1.1 0.3
v -0.4 1.2 0.3
v -0.4 1.3 0.3
v -0.3 0.4 0.3
v -0.3 0.5 0.3
v -0.3 0.6 0.3
v -0.3 0.7 0.3
v -0.3 0.8 0.3
v -0.3 1 0.3
v -0.3 1.1 0.3
v -0.3 1.2 0.3
v -0.3 1.3 0.3
v -0.3 1.4 0.3
v -0.2 0.7 0.3
v -0.2 0.8 0.3
v -0.2 1 0.3
v -0.2 1.1 0.3
v -0.2 1.2 0.3
v -0.2 1.3 0.3
v -0.2 1.4 0.3
v -0.1 0.4 0.3
v -0.1 0.6 0.3
v -0.1 0.7 0.3
v -0.1 1 0.3
v -0.1 1.1 0.3
v -0.1 1.3 0.3
v 0 0.3 0.3
v 0 0.4 0.3
v 0 0.7 0.3
v 0 0.8 0.3
v 0 0.9 0.3
v 0 1 0.3
v 0 1.1 0.3
v 0.1 0.8 0.3
v 0.1 1 0.3
v -0.7 0.6 0.2
v -0.7 0.7 0.2
v -0.6 0.6 0.2
v -0.6 0.7 0.2
v -0.6 0.8 0.2
v -0.5 0.4 0.2
v -0.5 0.5 0.2
v -0.5 0.7 0.2
v -0.5 0.8 0.2
v -0.4 0 0.2
v -0.4 0.1 0.2
v -0.4 0.2 0.2
v -0.4 0.3 0.2
v -0.4 0.4 0.2
v -0.4 0.5 0.2
v -0.3 0 0.2
v -0.3 0.1 0.2
v -0.3 0.2 0.2
v -0.3 0.3 0.2
v -0.3 0.8 0.2
v -0.3 0.9 0.2
v -0.2 0 0.2
v -0.2 0.1 0.2
v -0.2 0.3 0.2
v -0.2 0.8 0.2
v -0.2 0.9 0.2
v -0.1 0 0.2
v -0.1 0.1 0.2
v -0.1 0.3 0.2
v -0.1 0.4 0.2
v -0.1 0.5 0.2
v 0 0.4 0.2
v 0 0.5 0.2
v 0 0.7 0.2
v 0 0.8 0.2
v 0.1 0.6 0.2
v 0.1 0.7 0.2
v 0.1 0.8 0.2
v 0.2 0.6 0.2
v 0.2 0.7 0.2
v -0.5 0.8 0
v -0.5 0.9 0
v -0.4 0.8 0
v -0.4 0.9 0
v -0.2 0.8 0
v -0.2 0.9 0
v 0 0.8 0
v 0 0.9 0
v -0.4 0.8 -0.1
v -0.4 0.9 -0.1
v -0.2 0.8 -0.1
v -0.2 0.9 -0.1
v -0.7 0.6 0.1
v -0.7 0.7 0.1
v -0.6 0.6 0.1
v -0.6 0.7 0.1
v -0.6 0.8 0.1
v -0.5 0.7 0.1
v -0.5 0.8 0.1
v 0 0.7 0.1
v 0 0.8 0.1
v 0.1 0.6 0.1
v 0.1 0.7 0.1
v 0.1 0.8 0.1
v 0.2 0.6 0.1
v 0.2 0.7 0.1
v -0.6 0.8 0
v -0.6 1.2 0
v -0.5 0.4 0
v -0.5 0.5 0
v -0.5 0.7 0
v -0.5 0.8 0
v -0.5 1.2 0
v -0.5 1.3 0
v -0.4 0 0
v -0.4 0.1 0
v -0.4 0.2 0
v -0.4 0.3 0
v -0.4 0.4 0
v -0.4 0.5 0
v -0.4 0.7 0
v -0.4 0.8 0
v -0.4 1.2 0
v -0.4 1.3 0
v -0.4 1.4 0
v -0.3 0 0
v -0.3 0.1 0
v -0.3 0.2 0
v -0.3 0.3 0
v -0.3 0.7 0
v -0.3 0.8 0
v -0.3 0.9 0
v -0.2 0 0
v -0.2 0.1 0
v -0.2 0.3 0
v -0.2 0.7 0
v -0.2 0.8 0
v -0.2 0.9 0
v -0.1 0 0
v -0.1 0.1 0
v -0.1 0.3 0
v -0.1 0.4 0
v -0.1 0.5 0
v -0.1 0.7 0
v -0.1 1.2 0
v -0.1 1.3 0
v -0.1 1.4 0
v 0 0.4 0
v 0 0.5 0
v 0 0.7 0
v 0 0.8 0
v 0 1.2 0
v 0 1.3 0
v 0.1 0.8 0
v 0.1 1.2 0
v -0.5 0.3 -0.1
v -0.5 0.4 -0.1
v -0.5 0.8 -0.1
v -0.5 1.2 -0.1
v -0.4 0.4 -0.1
v -0.4 0.5 -0.1
v -0.4 0.8 -0.1
v -0.4 1.2 -0.1
v -0.4 1.3 -0.1
v -0.1 0.4 -0.1
v -0.1 0.5 -0.1
v -0.1 0.8 -0.1
v -0.1 1.2 -0.1
v -0.1 1.3 -0.1
v 0 0.3 -0.1
v 0 0.4 -0.1
v 0 0.8 -0.1
v 0 1.2 -0.1
v -0.4 0.8 -0.2
v -0.4 1.2 -0.2
v -0.1 0.8 -0.2
v -0.1 1.2 -0.2
v -0.4 0 0.2
v -0.3 0 0.2
v -0.2 0 0.2
v -0.1 0 0.2
v -0.4 0 0
v -0.3 0 0
v -0.2 0 0
v -0.1 0 0
v -0.5 0.3 0.3
v -0.4 0.3 0.3
v 0 0.3 0.3
v -0.5 0.3 0.2
v -0.4 0.3 0.2
v -0.3 0.3 0.2
v -0.2 0.3 0.2
v -0.1 0.3 0.2
v -0.4 0.3 0.1
v -0.3 0.3 0.1
v -0.4 0.3 0
v -0.3 0.3 0
v -0.2 0.3 0
v -0.1 0.3 0
v -0.5 0.3 -0.1
v 0 0.3 -0.1
v -0.7 0.6 0.2
v -0.6 0.6 0.2
v 0.1 0.6 0.2
v 0.2 0.6 0.2
v -0.7 0.6 0.1
v -0.6 0.6 0.1
v 0.1 0.6 0.1
v 0.2 0.6 0.1
v -0.5 0.7 0.3
v -0.4 0.7 0.3
v -0.1 0.7 0.3
v 0 0.7 0.3
v -0.6 0.7 0.2
v -0.5 0.7 0.2
v -0.1 0.7 0.2
v 0 0.7 0.2
v 0.1 0.7 0.2
v -0.6 0.7 0.1
v -0.5 0.7 0.1
v -0.1 0.7 0.1
v 0 0.7 0.1
v 0.1 0.7 0.1
v -0.5 0.7 0
v -0.4 0.7 0
v -0.1 0.7 0
v 0 0.7 0
v -0.6 0.8 0.3
v -0.5 0.8 0.3
v 0 0.8 0.3
v 0.1 0.8 0.3
v -0.6 0.8 0.2
v -0.5 0.8 0.2
v 0 0.8 0.2
v 0.1 0.8 0.2
v -0.6 0.8 0.1
v -0.5 0.8 0.1
v 0 0.8 0.1
v 0.1 0.8 0.1
v -0.6 0.8 0
v -0.5 0.8 0
v -0.4 0.8 0
v -0.2 0.8 0
v 0 0.8 0
v 0.1 0.8 0
v -0.5 0.8 -0.1
v -0.4 0.8 -0.1
v -0.2 0.8 -0.1
v -0.1 0.8 -0.1
v 0 0.8 -0.1
v -0.4 0.8 -0.2
v -0.1 0.8 -0.2
v -0.5 0.9 0.3
v 0 0.9 0.3
v -0.3 0.9 0.2
v -0.2 0.9 0.2
v -0.5 0.9 0
v -0.4 0.9 0
v -0.3 0.9 0
v -0.2 0.9 0
v 0 0.9 0
v -0.4 0.9 -0.1
v -0.2 0.9 -0.1
v -0.6 1 0.4
v -0.5 1 0.4
v 0 1 0.4
v 0.1 1 0.4
v -0.6 1 0.3
v -0.5 1 0.3
v 0 1 0.3
v 0.1 1 0.3
v -0.5 1.1 0.4
v -0.4 1.1 0.4
v -0.1 1.1 0.4
v 0 1.1 0.4
v -0.5 1.1 0.3
v -0.4 1.1 0.3
v -0.1 1.1 0.3
v 0 1.1 0.3
v -0.4 1.3 0.4
v -0.3 1.3 0.4
v -0.2 1.3 0.4
v -0.1 1.3 0.4
v -0.4 1.3 0.3
v -0.3 1.3 0.3
v -0.2 1.3 0.3
v -0.1 1.3 0.3
v -0.5 0.4 0.3
v -0.4 0.4 0.3
v -0.1 0.4 0.3
v 0 0.4 0.3
v -0.5 0.4 0.2
v -0.4 0.4 0.2
v -0.1 0.4 0.2
v 0 0.4 0.2
v -0.5 0.4 0
v -0.4 0.4 0
v -0.1 0.4 0
v 0 0.4 0
v -0.5 0.4 -0.1
v -0.4 0.4 -0.1
v -0.1 0.4 -0.1
v 0 0.4 -0.1
v -0.5 0.5 0.2
v -0.4 0.5 0.2
v -0.1 0.5 0.2
v 0 0.5 0.2
v -0.5 0.5 0
v -0.4 0.5 0
v -0.1 0.5 0
v 0 0.5 0
v -0.4 0.5 -0.1
v -0.1 0.5 -0.1
v -0.7 0.7 0.2
v -0.6 0.7 0.2
v 0.1 0.7 0.2
v 0.2 0.7 0.2
v -0.7 0.7 0.1
v -0.6 0.7 0.1
v 0.1 0.7 0.1
v 0.2 0.7 0.1
v -0.5 0.8 0.3
v -0.3 0.8 0.3
v -0.2 0.8 0.3
v 0 0.8 0.3
v -0.3 0.8 0.2
v -0.2 0.8 0.2
v 0 0.8 0.2
v -0.2 0.8 0.1
v 0 0.8 0.1
v -0.5 0.8 0
v -0.4 0.8 0
v -0.3 0.8 0
v -0.2 0.8 0
v 0 0.8 0
v -0.6 1.2 0.4
v -0.5 1.2 0.4
v 0 1.2 0.4
v 0.1 1.2 0.4
v -0.6 1.2 0
v -0.5 1.2 0
v -0.4 1.2 0
v -0.1 1.2 0
v 0 1.2 0
v 0.1 1.2 0
v -0.5 1.2 -0.1
v -0.4 1.2 -0.1
v -0.1 1.2 -0.1
v 0 1.2 -0.1
v -0.4 1.2 -0.2
v -0.1 1.2 -0.2
v -0.5 1.3 0.4
v -0.4 1.3 0.4
v -0.1 1.3 0.4
v 0 1.3 0.4
v -0.5 1.3 0
v -0.4 1.3 0
v -0.1 1.3 0
v 0 1.3 0
v -0.4 1.3 -0.1
v -0.1 1.3 -0.1
v -0.4 1.4 0.4
v -0.3 1.4 0.4
v -0.2 1.4 0.4
v -0.1 1.4 0.4
v -0.3 1.4 0.3
v -0.2 1.4 0.3
v -0.4 1.4 0
v -0.1 1.4 0

# faces
f 3/8/1 2/8/1 1/8/1
f 4/8/1 2/8/1 3/8/1
f 8/2/1 6/2/1 5/2/1
f 9/2/1 6/2/1 8/2/1
f 12/9/1 8/9/1 7/9/1
f 12/9/1 10/9/1 9/9/1
f 12/9/1 9/9/1 8/9/1
f 13/9/1 12/9/1 11/9/1
f 14/9/1 10/9/1 12/9/1
f 14/9/1 12/9/1 13/9/1
f 18/4/1 16/4/1 15/4/1
f 19/5/1 17/5/1 16/5/1
f 19/4/1 16/4/1 18/4/1
f 20/5/1 17/5/1 19/5/1
f 21/5/1 17/5/1 20/5/1
f 22/5/1 20/5/1 19/5/1
f 23/5/1 20/5/1 22/5/1
f 28/5/1 25/5/1 24/5/1
f 29/5/1 25/5/1 28/5/1
f 30/5/1 27/5/1 26/5/1
f 31/5/1 27/5/1 30/5/1
f 34/9/1 32/9/1 31/9/1
f 35/9/1 32/9/1 34/9/1
f 36/9/1 34/9/1 33/9/1
f 37/9/1 34/9/1 36/9/1
f 40/10/1 39/10/1 38/10/1
f 41/10/1 39/10/1 40/10/1
f 42/10/1 39/10/1 41/10/1
f 43/2/1 41/2/1 40/2/1
f 44/6/1 42/6/1 41/6/1
f 44/2/1 41/2/1 43/2/1
f 45/6/1 42/6/1 44/6/1
f 46/6/1 44/6/1 43/6/1
f 47/2/1 45/2/1 44/2/1
f 47/6/1 44/6/1 46/6/1
f 48/2/1 45/2/1 47/2/1
f 53/4/1 50/4/1 49/4/1
f 54/4/1 50/4/1 53/4/1
f 55/5/1 52/5/1 51/5/1
f 56/5/1 52/5/1 55/5/1
f 57/5/1 54/5/1 53/5/1
f 57/5/1 55/5/1 54/5/1
f 58/5/1 55/5/1 57/5/1
f 62/9/1 60/9/1 59/9/1
f 63/9/1 60/9/1 62/9/1
f 65/9/1 62/9/1 61/9/1
f 66/9/1 62/9/1 65/9/1
f 67/9/1 65/9/1 64/9/1
f 68/9/1 65/9/1 67/9/1
f 71/7/1 70/7/1 69/7/1
f 72/7/1 70/7/1 71/7/1
f 75/10/1 74/10/1 73/10/1
f 76/10/1 74/10/1 75/10/1
f 77/2/1 76/2/1 75/2/1
f 78/2/1 76/2/1 77/2/1
f 81/9/1 80/9/1 79/9/1
f 82/9/1 80/9/1 81/9/1
f 85/9/1 84/9/1 83/9/1
f 86/9/1 84/9/1 85/9/1
f 89/9/1 88/9/1 87/9/1
f 90/9/1 88/9/1 89/9/1
f 95/9/1 92/9/1 91/9/1
f 95/9/1 94/9/1 93/9/1
f 95/9/1 93/9/1 92/9/1
f 96/9/1 94/9/1 95/9/1
f 99/9/1 98/9/1 97/9/1
f 100/9/1 98/9/1 99/9/1
f 103/2/1 102/2/1 101/2/1
f 104/2/1 102/2/1 103/2/1
f 105/8/2 106/8/2 107/8/2
f 107/8/2 106/8/2 108/8/2
f 109/9/2 110/9/2 111/9/2
f 111/9/2 110/9/2 112/9/2
f 113/9/2 114/9/2 115/9/2
f 115/9/2 114/9/2 116/9/2
f 117/9/2 118/9/2 119/9/2
f 119/9/2 118/9/2 120/9/2
f 121/9/2 122/9/2 123/9/2
f 121/9/2 123/9/2 124/9/2
f 124/9/2 123/9/2 125/9/2
f 126/10/2 127/10/2 128/10/2
f 128/10/2 127/10/2 129/10/2
f 129/10/2 127/10/2 130/10/2
f 128/2/2 129/2/2 131/2/2
f 129/6/2 130/6/2 132/6/2
f 131/2/2 129/2/2 132/2/2
f 132/6/2 130/6/2 133/6/2
f 131/6/2 132/6/2 134/6/2
f 132/2/2 133/2/2 135/2/2
f 134/6/2 132/6/2 135/6/2
f 135/2/2 133/2/2 136/2/2
f 137/9/2 138/9/2 139/9/2
f 139/9/2 138/9/2 140/9/2
f 141/7/2 142/7/2 144/7/2
f 142/7/2 143/7/2 144/7/2
f 144/7/2 143/7/2 145/7/2
f 146/10/2 147/10/2 148/10/2
f 148/10/2 147/10/2 149/10/2
f 148/2/2 149/2/2 150/2/2
f 150/2/2 149/2/2 151/2/2
f 152/5/2 153/5/2 156/5/2
f 154/5/2 155/5/2 157/5/2
f 157/5/2 155/5/2 158/5/2
f 152/5/2 156/5/2 159/5/2
f 156/5/2 157/5/2 159/5/2
f 159/5/2 157/5/2 160/5/2
f 159/3/2 160/3/2 161/3/2
f 160/5/2 157/5/2 162/5/2
f 161/3/2 160/3/2 162/3/2
f 162/5/2 157/5/2 163/5/2
f 163/5/2 157/5/2 164/5/2
f 165/9/2 166/9/2 168/9/2
f 168/9/2 166/9/2 169/9/2
f 167/9/2 168/9/2 171/9/2
f 171/9/2 168/9/2 172/9/2
f 170/9/2 171/9/2 173/9/2
f 173/9/2 171/9/2 174/9/2
f 175/5/2 176/5/2 177/5/2
f 177/5/2 176/5/2 178/5/2
f 178/5/2 176/5/2 179/5/2
f 179/5/2 176/5/2 180/5/2
f 178/5/2 179/5/2 181/5/2
f 181/5/2 179/5/2 182/5/2
f 183/3/2 184/3/2 187/3/2
f 187/3/2 184/3/2 188/3/2
f 185/5/2 186/5/2 189/5/2
f 189/5/2 186/5/2 190/5/2
f 190/9/2 191/9/2 193/9/2
f 193/9/2 191/9/2 194/9/2
f 192/9/2 193/9/2 195/9/2
f 195/9/2 193/9/2 196/9/2
f 197/8/2 198/8/2 200/8/2
f 200/8/2 198/8/2 201/8/2
f 199/9/2 200/9/2 204/9/2
f 201/9/2 202/9/2 204/9/2
f 200/9/2 201/9/2 204/9/2
f 203/9/2 204/9/2 205/9/2
f 204/9/2 202/9/2 206/9/2
f 205/9/2 204/9/2 206/9/2
f 207/2/2 208/2/2 209/2/2
f 209/2/2 208/2/2 210/2/2
f 213/9/3 212/9/3 211/9/3
f 214/9/3 212/9/3 213/9/3
f 215/9/3 212/9/3 214/9/3
f 217/9/3 216/9/3 215/9/3
f 217/9/3 215/9/3 214/9/3
f 218/9/3 216/9/3 217/9/3
f 220/9/3 219/9/3 218/9/3
f 221/9/3 219/9/3 220/9/3
f 225/9/3 223/9/3 222/9/3
f 226/9/3 223/9/3 225/9/3
f 228/9/3 225/9/3 224/9/3
f 229/9/3 225/9/3 228/9/3
f 230/9/3 225/9/3 229/9/3
f 231/9/3 228/9/3 227/9/3
f 231/9/3 229/9/3 228/9/3
f 232/9/3 229/9/3 231/9/3
f 238/9/3 234/9/3 233/9/3
f 239/9/3 234/9/3 238/9/3
f 240/9/3 234/9/3 239/9/3
f 242/4/3 236/4/3 235/4/3
f 243/4/3 236/4/3 242/4/3
f 245/5/3 238/5/3 237/5/3
f 246/2/3 241/2/3 240/2/3
f 246/2/3 240/2/3 239/2/3
f 247/2/3 241/2/3 246/2/3
f 250/4/3 244/4/3 243/4/3
f 250/5/3 243/5/3 242/5/3
f 251/5/3 245/5/3 244/5/3
f 251/4/3 244/4/3 250/4/3
f 252/5/3 245/5/3 251/5/3
f 253/5/3 238/5/3 245/5/3
f 253/5/3 245/5/3 252/5/3
f 254/5/3 238/5/3 253/5/3
f 255/2/3 246/2/3 239/2/3
f 255/10/3 247/10/3 246/10/3
f 256/7/3 248/7/3 247/7/3
f 256/10/3 247/10/3 255/10/3
f 257/2/3 249/2/3 248/2/3
f 257/7/3 248/7/3 256/7/3
f 258/2/3 249/2/3 257/2/3
f 260/2/3 254/2/3 253/2/3
f 260/3/3 253/3/3 252/3/3
f 261/2/3 254/2/3 260/2/3
f 262/2/3 256/2/3 255/2/3
f 262/2/3 255/2/3 239/2/3
f 262/2/3 257/2/3 256/2/3
f 263/2/3 257/2/3 262/2/3
f 264/7/3 258/7/3 257/7/3
f 264/2/3 257/2/3 263/2/3
f 265/9/3 259/9/3 258/9/3
f 265/7/3 258/7/3 264/7/3
f 266/9/3 259/9/3 265/9/3
f 267/5/3 250/5/3 242/5/3
f 267/5/3 252/5/3 251/5/3
f 267/5/3 251/5/3 250/5/3
f 268/3/3 261/3/3 260/3/3
f 268/5/3 252/5/3 267/5/3
f 268/3/3 260/3/3 252/3/3
f 269/3/3 261/3/3 268/3/3
f 270/2/3 262/2/3 239/2/3
f 270/10/3 263/10/3 262/10/3
f 271/2/3 265/2/3 264/2/3
f 271/10/3 263/10/3 270/10/3
f 271/2/3 264/2/3 263/2/3
f 272/2/3 265/2/3 271/2/3
f 273/5/3 267/5/3 242/5/3
f 274/5/3 267/5/3 273/5/3
f 275/3/3 261/3/3 269/3/3
f 276/3/3 261/3/3 275/3/3
f 277/2/3 270/2/3 239/2/3
f 277/2/3 271/2/3 270/2/3
f 278/2/3 271/2/3 277/2/3
f 279/2/3 271/2/3 278/2/3
f 280/9/3 278/9/3 277/9/3
f 280/9/3 277/9/3 276/9/3
f 281/9/3 278/9/3 280/9/3
f 284/8/3 283/8/3 282/8/3
f 285/8/3 283/8/3 284/8/3
f 289/2/3 286/2/3 285/2/3
f 290/2/3 286/2/3 289/2/3
f 295/5/3 288/5/3 287/5/3
f 296/5/3 288/5/3 295/5/3
f 297/10/3 292/10/3 291/10/3
f 298/2/3 293/2/3 292/2/3
f 298/10/3 292/10/3 297/10/3
f 299/6/3 294/6/3 293/6/3
f 299/2/3 293/2/3 298/2/3
f 300/6/3 294/6/3 299/6/3
f 306/7/3 302/7/3 301/7/3
f 307/7/3 302/7/3 306/7/3
f 308/10/3 304/10/3 303/10/3
f 309/2/3 305/2/3 304/2/3
f 309/10/3 304/10/3 308/10/3
f 310/2/3 305/2/3 309/2/3
f 313/5/3 312/5/3 311/5/3
f 314/5/3 312/5/3 313/5/3
f 318/8/3 316/8/3 315/8/3
f 319/8/3 316/8/3 318/8/3
f 320/2/3 318/2/3 317/2/3
f 321/2/3 318/2/3 320/2/3
f 324/9/3 323/9/3 322/9/3
f 325/9/3 323/9/3 324/9/3
f 328/9/3 327/9/3 326/9/3
f 329/9/3 327/9/3 328/9/3
f 332/9/3 331/9/3 330/9/3
f 333/9/3 331/9/3 332/9/3
f 334/8/4 335/8/4 336/8/4
f 336/8/4 335/8/4 337/8/4
f 337/2/4 338/2/4 339/2/4
f 339/2/4 338/2/4 340/2/4
f 341/8/4 342/8/4 344/8/4
f 344/8/4 342/8/4 345/8/4
f 343/2/4 344/2/4 346/2/4
f 346/2/4 344/2/4 347/2/4
f 348/9/4 349/9/4 353/9/4
f 353/9/4 349/9/4 354/9/4
f 350/5/4 351/5/4 360/5/4
f 360/5/4 351/5/4 361/5/4
f 352/5/4 353/5/4 362/5/4
f 362/5/4 353/5/4 363/5/4
f 354/9/4 355/9/4 364/9/4
f 364/9/4 355/9/4 365/9/4
f 356/10/4 357/10/4 367/10/4
f 357/6/4 358/6/4 368/6/4
f 367/10/4 357/10/4 368/10/4
f 358/2/4 359/2/4 369/2/4
f 368/6/4 358/6/4 369/6/4
f 369/2/4 359/2/4 370/2/4
f 362/5/4 363/5/4 371/5/4
f 361/5/4 362/5/4 371/5/4
f 371/5/4 363/5/4 372/5/4
f 371/2/4 372/2/4 377/2/4
f 361/5/4 371/5/4 377/5/4
f 372/7/4 373/7/4 378/7/4
f 377/2/4 372/2/4 378/2/4
f 378/7/4 373/7/4 379/7/4
f 374/10/4 375/10/4 380/10/4
f 375/2/4 376/2/4 381/2/4
f 380/10/4 375/10/4 381/10/4
f 381/2/4 376/2/4 382/2/4
f 361/5/4 377/5/4 384/5/4
f 377/5/4 378/5/4 384/5/4
f 384/5/4 378/5/4 385/5/4
f 365/9/4 366/9/4 387/9/4
f 387/9/4 366/9/4 388/9/4
f 383/5/4 384/5/4 389/5/4
f 389/5/4 384/5/4 390/5/4
f 385/5/4 378/5/4 391/5/4
f 391/5/4 378/5/4 392/5/4
f 386/9/4 387/9/4 393/9/4
f 393/9/4 387/9/4 394/9/4
f 392/9/4 393/9/4 395/9/4
f 395/9/4 393/9/4 396/9/4
f 397/5/4 398/5/4 401/5/4
f 399/9/4 400/9/4 403/9/4
f 403/9/4 400/9/4 404/9/4
f 401/5/4 402/5/4 406/5/4
f 397/5/4 401/5/4 406/5/4
f 406/5/4 402/5/4 407/5/4
f 404/9/4 405/9/4 409/9/4
f 409/9/4 405/9/4 410/9/4
f 397/5/4 406/5/4 411/5/4
f 411/5/4 406/5/4 412/5/4
f 408/9/4 409/9/4 413/9/4
f 413/9/4 409/9/4 414/9/4
f 415/9/4 416/9/4 417/9/4
f 417/9/4 416/9/4 418/9/4
f 423/10/5 420/10/5 419/10/5
f 424/10/5 420/10/5 423/10/5
f 425/10/5 422/10/5 421/10/5
f 426/10/5 422/10/5 425/10/5
f 430/4/5 428/4/5 427/4/5
f 431/5/5 429/5/5 428/5/5
f 431/4/5 428/4/5 430/4/5
f 432/5/5 429/5/5 431/5/5
f 433/5/5 429/5/5 432/5/5
f 434/5/5 429/5/5 433/5/5
f 435/5/5 431/5/5 430/5/5
f 436/5/5 433/5/5 432/5/5
f 437/5/5 435/5/5 430/5/5
f 438/5/5 433/5/5 436/5/5
f 439/5/5 433/5/5 438/5/5
f 440/5/5 429/5/5 434/5/5
f 441/5/5 439/5/5 438/5/5
f 441/5/5 440/5/5 439/5/5
f 441/5/5 437/5/5 430/5/5
f 441/5/5 438/5/5 437/5/5
f 442/5/5 429/5/5 440/5/5
f 442/5/5 440/5/5 441/5/5
f 447/8/5 444/8/5 443/8/5
f 448/8/5 444/8/5 447/8/5
f 449/2/5 446/2/5 445/2/5
f 450/2/5 446/2/5 449/2/5
f 456/5/5 452/5/5 451/5/5
f 457/3/5 454/3/5 453/3/5
f 458/3/5 454/3/5 457/3/5
f 460/2/5 456/2/5 455/2/5
f 461/5/5 452/5/5 456/5/5
f 461/2/5 456/2/5 460/2/5
f 462/1/5 458/1/5 457/1/5
f 463/8/5 459/8/5 458/8/5
f 463/1/5 458/1/5 462/1/5
f 464/8/5 459/8/5 463/8/5
f 465/5/5 452/5/5 461/5/5
f 466/5/5 452/5/5 465/5/5
f 467/5/5 463/5/5 462/5/5
f 468/5/5 463/5/5 467/5/5
f 473/9/5 470/9/5 469/9/5
f 474/9/5 470/9/5 473/9/5
f 475/9/5 472/9/5 471/9/5
f 476/9/5 472/9/5 475/9/5
f 481/9/5 478/9/5 477/9/5
f 482/9/5 478/9/5 481/9/5
f 485/9/5 480/9/5 479/9/5
f 486/9/5 480/9/5 485/9/5
f 487/9/5 483/9/5 482/9/5
f 488/9/5 483/9/5 487/9/5
f 489/9/5 485/9/5 484/9/5
f 490/9/5 485/9/5 489/9/5
f 491/9/5 485/9/5 490/9/5
f 492/9/5 489/9/5 488/9/5
f 492/9/5 490/9/5 489/9/5
f 493/9/5 490/9/5 492/9/5
f 496/2/5 495/2/5 494/2/5
f 497/2/5 495/2/5 496/2/5
f 498/2/5 496/2/5 494/2/5
f 499/2/5 496/2/5 498/2/5
f 500/2/5 496/2/5 499/2/5
f 501/2/5 495/2/5 497/2/5
f 502/2/5 495/2/5 501/2/5
f 503/9/5 500/9/5 499/9/5
f 503/9/5 501/9/5 500/9/5
f 504/9/5 501/9/5 503/9/5
f 509/9/5 506/9/5 505/9/5
f 510/9/5 506/9/5 509/9/5
f 511/9/5 508/9/5 507/9/5
f 512/9/5 508/9/5 511/9/5
f 517/9/5 514/9/5 513/9/5
f 518/9/5 514/9/5 517/9/5
f 519/9/5 516/9/5 515/9/5
f 520/9/5 516/9/5 519/9/5
f 525/9/5 522/9/5 521/9/5
f 526/9/5 522/9/5 525/9/5
f 527/9/5 524/9/5 523/9/5
f 528/9/5 524/9/5 527/9/5
f 529/4/6 530/4/6 533/4/6
f 533/4/6 530/4/6 534/4/6
f 531/5/6 532/5/6 535/5/6
f 535/5/6 532/5/6 536/5/6
f 537/5/6 538/5/6 541/5/6
f 541/5/6 538/5/6 542/5/6
f 539/5/6 540/5/6 543/5/6
f 543/5/6 540/5/6 544/5/6
f 545/5/6 546/5/6 549/5/6
f 549/5/6 546/5/6 550/5/6
f 547/5/6 548/5/6 551/5/6
f 551/5/6 548/5/6 552/5/6
f 550/5/6 551/5/6 553/5/6
f 553/5/6 551/5/6 554/5/6
f 555/8/6 556/8/6 559/8/6
f 559/8/6 556/8/6 560/8/6
f 557/2/6 558/2/6 561/2/6
f 561/2/6 558/2/6 562/2/6
f 563/5/6 564/5/6 567/5/6
f 564/2/6 565/2/6 567/2/6
f 565/3/6 566/3/6 568/3/6
f 567/2/6 565/2/6 568/2/6
f 568/3/6 566/3/6 569/3/6
f 568/1/6 569/1/6 570/1/6
f 570/1/6 569/1/6 571/1/6
f 563/5/6 567/5/6 572/5/6
f 572/5/6 567/5/6 573/5/6
f 573/5/6 567/5/6 574/5/6
f 570/5/6 571/5/6 575/5/6
f 575/5/6 571/5/6 576/5/6
f 577/9/6 578/9/6 581/9/6
f 581/9/6 578/9/6 582/9/6
f 579/9/6 580/9/6 585/9/6
f 585/9/6 580/9/6 586/9/6
f 582/9/6 583/9/6 587/9/6
f 587/9/6 583/9/6 588/9/6
f 584/9/6 585/9/6 589/9/6
f 589/9/6 585/9/6 590/9/6
f 588/9/6 589/9/6 591/9/6
f 591/9/6 589/9/6 592/9/6
f 593/9/6 594/9/6 597/9/6
f 597/9/6 594/9/6 598/9/6
f 595/9/6 596/9/6 599/9/6
f 599/9/6 596/9/6 600/9/6
f 598/9/6 599/9/6 601/9/6
f 601/9/6 599/9/6 602/9/6
f 603/9/6 604/9/6 607/9/6
f 605/9/6 606/9/6 608/9/6
f 603/9/6 607/9/6 609/9/6
f 607/9/6 608/9/6 609/9/6
f 608/9/6 606/9/6 610/9/6
f 609/9/6 608/9/6 610/9/6
